<!DOCTYPE svg PUBLIC "-//W3C//DTD SVG 1.1//EN" "http://www.w3.org/Graphics/SVG/1.1/DTD/svg11.dtd">
<!-- Uploaded to: SVG Repo, www.svgrepo.com, Transformed by: SVG Repo Mixer Tools -->
<svg fill="#000000" width="64px" height="64px" viewBox="0 0 32 32" version="1.1" xmlns="http://www.w3.org/2000/svg">
<g id="SVGRepo_bgCarrier" stroke-width="0"/>
<g id="SVGRepo_tracerCarrier" stroke-linecap="round" stroke-linejoin="round"/>
<g id="SVGRepo_iconCarrier"> <title>check-double</title> <path d="M30.844 3.602c-0.221-0.204-0.518-0.328-0.844-0.328-0.365 0-0.693 0.156-0.921 0.406l-0.001 0.001-20.121 21.993-6.076-6.036c-0.226-0.226-0.538-0.366-0.883-0.366-0.69 0-1.25 0.56-1.25 1.25 0 0.348 0.142 0.663 0.371 0.889l0 0 7 6.953 0.022 0.015 0.015 0.021c0.074 0.061 0.159 0.114 0.25 0.156l0.007 0.003c0.037 0.026 0.079 0.053 0.123 0.077l0.007 0.003c0.135 0.056 0.292 0.089 0.457 0.089 0.175 0 0.341-0.037 0.491-0.103l-0.008 0.003c0.053-0.031 0.098-0.061 0.14-0.094l-0.003 0.002c0.102-0.050 0.189-0.11 0.268-0.179l-0.001 0.001 0.015-0.023 0.020-0.014 21-22.953c0.204-0.221 0.328-0.518 0.328-0.844 0-0.365-0.156-0.693-0.406-0.921l-0.001-0.001zM8.876 15.204l0.022 0.015 0.015 0.021c0.073 0.059 0.156 0.111 0.244 0.152l0.007 0.003c0.039 0.028 0.083 0.056 0.13 0.081l0.007 0.003c0.135 0.056 0.292 0.088 0.456 0.088 0.175 0 0.34-0.037 0.491-0.102l-0.008 0.003c0.053-0.031 0.098-0.061 0.14-0.094l-0.003 0.002c0.102-0.050 0.189-0.11 0.268-0.179l-0.001 0.001 0.015-0.023 0.020-0.014 11.269-12.317c0.203-0.221 0.328-0.518 0.328-0.844 0-0.69-0.559-1.25-1.25-1.25-0.365 0-0.693 0.156-0.921 0.405l-0.001 0.001-10.39 11.357-2.833-2.814c-0.226-0.226-0.538-0.366-0.883-0.366-0.69 0-1.25 0.56-1.25 1.25 0 0.348 0.142 0.663 0.372 0.889l0 0z"/> </g>
</svg>